<?xml version="1.0" encoding="utf-8"?>
<!-- Generator: Adobe Illustrator 20.1.0, SVG Export Plug-In . SVG Version: 6.00 Build 0)  -->
<svg version="1.1" id="Слой_1" xmlns="http://www.w3.org/2000/svg" xmlns:xlink="http://www.w3.org/1999/xlink" x="0px" y="0px"
	 viewBox="0 0 100 100" style="enable-background:new 0 0 100 100;" xml:space="preserve">
<style type="text/css">
	.st0{fill:#6F7B82;}
</style>
<g>
	<path d="M96.8,20.1H82.3c-3.2,0-3.2,0-3.2,3.2V94c0,3.2,0,3.2,3.2,3.2h14.5c3.2,0,3.2,0,3.2-3.2V23.3
		C99.9,20.1,99.9,20.1,96.8,20.1z"/>
	<path d="M69.4,20.1h-16c-3.2,0-3.2,0-3.2,3.2V94c0,3.2,0,3.2,3.2,3.2h16c3.2,0,3.2,0,3.2-3.2V23.3C72.7,20.1,72.7,20.1,69.4,20.1z"
		/>
	<path d="M32.7,47.7v5.4h-5.4h-4.4v40.8c0,3.2,0,3.2,3.2,3.2h14.5c3.2,0,3.2,0,3.2-3.2V35.7H32.7V47.7z"/>
	<path d="M43.8,23.3v7H27.3v17.4h-9.9V30.3H0v-9.9h17.5V2.8h9.9v17.6h15.9C43.8,20.8,43.8,21.6,43.8,23.3z"/>
	<path class="st0" d="M43.3,20.4H27.3v-0.3h13.2C42,20.1,42.9,20.1,43.3,20.4z"/>
</g>
</svg>
