<?xml version="1.0" encoding="utf-8"?>
<!-- Generator: Adobe Illustrator 20.1.0, SVG Export Plug-In . SVG Version: 6.00 Build 0)  -->
<svg version="1.1" id="Слой_1" xmlns="http://www.w3.org/2000/svg" xmlns:xlink="http://www.w3.org/1999/xlink" x="0px" y="0px"
	 viewBox="0 0 100 100" style="enable-background:new 0 0 100 100;" xml:space="preserve">
<path d="M62.2,37.9C57,42.2,52.8,45,50.7,45c-8.3,0-17.6-7.5-24.2-6.3C19.9,40,15.6,55,15.6,55L1.9,57.9C24.2,24.1,59.6,2.4,100,0
	c0,0-3.2,5.2-9.6,11.7c-4,0-8.2-0.3-11.7-1.2c1.1,2.2,3.5,4.5,6.4,6.5c-1.5,1.5-3.1,3-4.6,4.5C76,21.5,71,21.3,67,20.3
	c1.2,2.4,4,5,7.3,7.1c-1,0.9-2,1.8-2.9,2.7c-5.4,0.4-13.7,0.7-19.6-0.9C53.3,32.2,57.6,35.8,62.2,37.9z M43.8,75H31.2v-6.2h3.1
	c1.7,0,3.1-1.4,3.1-3.1c0-1.7-1.4-3.1-3.1-3.1H15.6c-1.7,0-3.1,1.4-3.1,3.1c0,1.7,1.4,3.1,3.1,3.1h3.1V75H6.2C2.8,75,0,77.8,0,81.2
	v12.5c0,3.5,2.8,6.2,6.2,6.2h37.5c3.5,0,6.2-2.8,6.2-6.2V81.2C50,77.8,47.2,75,43.8,75z"/>
</svg>
