<?xml version="1.0" encoding="utf-8"?>
<!-- Generator: Adobe Illustrator 20.1.0, SVG Export Plug-In . SVG Version: 6.00 Build 0)  -->
<svg version="1.1" id="Слой_1" xmlns="http://www.w3.org/2000/svg" xmlns:xlink="http://www.w3.org/1999/xlink" x="0px" y="0px"
	 viewBox="0 0 100 100" style="enable-background:new 0 0 100 100;" xml:space="preserve">
<path d="M100,37.5C100,37.5,99.8,37.5,100,37.5C98.7,17.4,82.6,1.3,62.5,0.2L62.6,0c-0.8,0-1.6,0-2.6,0c-4.8,0-9.4,0.8-13.6,2.4
	c-0.2,0-0.2,0-0.2,0.2c-15.3,5.6-26,20.1-26,37.2c0,8.8,2.7,16.6,7.5,23.2l-0.2,0.2l-8.8,8.8l-7.7-7.7c-2.6-2.6-6.7-2.6-9.3,0
	c-2.6,2.6-2.6,6.7,0,9.3l7.7,7.7l-7.7,7.7c-2.6,2.6-2.6,6.7,0,9.3s6.7,2.6,9.3,0l7.7-7.7l7.7,7.7c2.6,2.6,6.7,2.6,9.3,0
	c2.6-2.6,2.6-6.7,0-9.3l-7.7-7.7l8.8-8.8l0.2-0.2c6.5,4.8,14.4,7.5,23.2,7.5c17.1,0,31.8-10.9,37.2-26.2h0.2
	c1.6-4.3,2.4-8.9,2.4-13.7C100,39,100,38.2,100,37.5z M86.9,39.9c0,0.8,0,1.4-0.2,2.1c0,0.3,0,0.5,0,0.8V43l0,0
	c-0.6,5-2.4,9.4-5.3,13.1l0,0c-0.2,0.2-0.3,0.3-0.3,0.5c-0.2,0.2-0.3,0.3-0.3,0.5c-0.5,0.6-1,1.1-1.4,1.6c-0.2,0.2-0.2,0.2-0.3,0.3
	c-0.5,0.5-1.1,1.1-1.8,1.6h-0.2c-0.6,0.5-1.1,1-1.8,1.3c-0.2,0-0.2,0.2-0.3,0.2c-0.6,0.3-1.3,0.8-1.9,1.1c-0.2,0.2-0.3,0.2-0.5,0.3
	c-0.6,0.3-1.3,0.6-1.9,1c-0.2,0-0.3,0.2-0.5,0.2c-0.6,0.3-1.3,0.5-1.9,0.6c-0.2,0-0.2,0-0.3,0.2c-0.8,0.3-1.4,0.5-2.2,0.6
	c-0.2,0-0.2,0-0.3,0c-1.6,0.3-3.4,0.5-5.1,0.5c-1,0-1.9,0-2.9-0.2c-13.6-1.4-24.1-12.8-24.1-26.7c0-14.9,12-26.8,26.8-26.8
	S86.9,25.1,86.9,39.9L86.9,39.9z"/>
</svg>
