<?xml version="1.0" encoding="utf-8"?>
<!-- Generator: Adobe Illustrator 20.1.0, SVG Export Plug-In . SVG Version: 6.00 Build 0)  -->
<svg version="1.1" id="Слой_1" xmlns="http://www.w3.org/2000/svg" xmlns:xlink="http://www.w3.org/1999/xlink" x="0px" y="0px"
	 viewBox="0 0 100 100" style="enable-background:new 0 0 100 100;" xml:space="preserve">
<path id="path" d="M38.9,97.7V58.2c0-1.3-0.6-2.5-1.3-3.1L4.4,8.8C2.5,6.3,3.8,2.5,6.3,1.3C7.5,0,8.2,0,9.4,0h81.4
	c3.1,0,5.6,2.5,5.6,5.6c0,1.3,0,1.9-0.6,3.1L62.7,54.5c-1.3,1.3-1.3,2.5-1.3,3.8v23.2c0,0.6,0,1.3-0.6,1.9L42.6,99.6
	c-1.3,0.6-2.5,0.6-3.1-0.6C38.9,99,38.9,98.3,38.9,97.7z"/>
</svg>
