<?xml version="1.0" encoding="utf-8"?>
<!-- Generator: Adobe Illustrator 20.1.0, SVG Export Plug-In . SVG Version: 6.00 Build 0)  -->
<svg version="1.1" id="Слой_1" xmlns="http://www.w3.org/2000/svg" xmlns:xlink="http://www.w3.org/1999/xlink" x="0px" y="0px"
	 viewBox="0 0 100 100" style="enable-background:new 0 0 100 100;" xml:space="preserve">
<g>
	<path d="M99.2,4c-0.6-1.6-1.9-2.9-3.5-3.5c-0.8-0.3-1.6-0.5-2.6-0.5H64.3c-3.5,0-6.5,2.9-6.5,6.5s2.9,6.5,6.5,6.5h13.2L62.8,27.8
		c-0.5-0.3-1-0.6-1.3-1c-0.6-0.3-1.1-0.8-1.8-1.1c-0.3-0.2-0.5-0.3-0.8-0.5c-0.8-0.5-1.8-1-2.6-1.3c-0.2,0-0.2,0-0.3-0.2
		c-4.3-1.9-9.1-3.2-14-3.5l0,0c-0.8,0-1.6-0.2-2.4-0.2c-4.8,0-9.4,0.8-13.7,2.4v0.2C10.8,28.4,0,43.1,0,60c0,8.8,2.7,16.6,7.5,23.1
		v0.2c2.6,3.5,5.7,6.7,9.3,9.3l0,0c0.5,0.3,1.1,0.8,1.8,1.1c0.5,0.3,1,0.6,1.4,1c0.2,0,0.2,0.2,0.3,0.2c5.1,2.9,11,4.6,17.2,4.9
		c0,0,0,0,0,0.2c0.8,0,1.6,0.2,2.4,0.2c4.8,0,9.3-0.8,13.6-2.4c0,0,0-0.2,0.2-0.3c15.2-5.4,26-20.1,26-37.2c0-5.1-1-9.9-2.7-14.4
		c-0.2-0.5-0.3-1-0.6-1.6c-0.2-0.3-0.3-0.8-0.5-1.1c-0.3-0.6-0.6-1.4-1.1-2.1c-0.2-0.3-0.3-0.5-0.5-0.8c-0.5-0.6-0.8-1.4-1.3-2.1
		c-0.2-0.3-0.3-0.5-0.5-0.8c0-0.2-0.2-0.2-0.2-0.3l14.7-14.7v13.2c0,3.5,2.9,6.5,6.5,6.5c3.5,0,6.5-3,6.5-6.5v-29
		C99.7,5.6,99.5,4.8,99.2,4z M66.5,60.2c0,0.8,0,1.4-0.2,2.1c0,0.3,0,0.5,0,0.8v0.2l0,0c-0.6,4.9-2.4,9.4-5.3,13.1l0,0
		c-0.2,0.2-0.3,0.3-0.5,0.5c-0.2,0.2-0.2,0.3-0.3,0.5c-0.5,0.6-1,1.1-1.4,1.6l-0.3,0.3c-0.6,0.5-1.1,1.1-1.8,1.6c0,0,0,0-0.2,0
		c-0.6,0.5-1.3,1-1.8,1.3c-0.2,0-0.2,0.2-0.3,0.2c-0.6,0.3-1.3,0.8-1.9,1.1c-0.2,0.2-0.3,0.2-0.5,0.3c-0.6,0.3-1.3,0.6-1.9,1
		c-0.2,0-0.3,0.2-0.5,0.2c-0.6,0.3-1.3,0.5-1.9,0.6c-0.2,0-0.2,0-0.3,0.2c-0.8,0.2-1.4,0.5-2.2,0.6c-0.2,0-0.3,0-0.3,0
		c-1.6,0.3-3.3,0.5-5.1,0.5c-1,0-1.9,0-2.9-0.2c-9.9-0.8-18.2-7.2-21.9-15.9l0,0c-0.3-0.8-0.6-1.6-0.8-2.4V68
		c-0.3-0.8-0.5-1.4-0.6-2.2c0-0.2,0-0.2-0.2-0.3c-0.2-0.6-0.2-1.3-0.3-1.9c0-0.3,0-0.5-0.2-0.8c0-0.3,0-0.5,0-0.8
		c0-0.6-0.2-1.3-0.2-1.9c0-1,0-1.8,0.2-2.7l0,0v-0.2c0.8-6.7,4-12.6,8.8-16.9s11-6.9,17.9-6.9C54.5,33.2,66.5,45.3,66.5,60.2
		C66.5,60,66.5,60.2,66.5,60.2z"/>
</g>
</svg>
