<?xml version="1.0" encoding="utf-8"?>
<svg fill="#1b5c81" version="1.1"  xmlns="http://www.w3.org/2000/svg" xmlns:xlink="http://www.w3.org/1999/xlink" x="0px" y="0px"
	 viewBox="0 0 390.3 161.9" style="enable-background:new 0 0 390.3 161.9;" xml:space="preserve">
<g>
	<path d="M195.2,0c-33.5,0-60.6,20.4-60.6,45.5v34.8V133v16.8c0,6.6,5.3,12.1,12.1,12.1c6.6,0,12.2-5.3,12.2-12.1V133
		c0-6.6,5.3-12.2,12.1-12.2c6.6,0,12.2,5.3,12.2,12.2v16.8c0,6.6,5.3,12.1,12.1,12.1c6.6,0,12.1-5.3,12.1-12.1V133
		c0-6.6,5.3-12.2,12.1-12.2c6.6,0,12.1,5.3,12.1,12.2v16.8l0,0c0.3,6.5,5.5,11.7,12.2,11.7c6.5,0,11.8-5.2,12.1-11.7l0,0V133V80.4
		V45.5C255.8,20.4,228.5,0,195.2,0z M179.9,72.9c-3.1,0-5.8-2.6-7.3-6.5c2.6-0.6,4.5-2.9,4.5-5.7c0-3.1-2.4-5.5-5.3-5.8
		c1.1-5.5,4.4-9.6,8.3-9.6c4.7,0,8.6,6.2,8.6,13.8S184.6,72.9,179.9,72.9z M210.4,72.9c-3.1,0-5.8-2.6-7.3-6.5
		c2.6-0.6,4.5-2.9,4.5-5.7c0-3.1-2.4-5.5-5.3-5.8c1.1-5.5,4.4-9.6,8.3-9.6c4.7,0,8.6,6.2,8.6,13.8S215.3,72.9,210.4,72.9z"/>
	<path d="M118.6,127h-19v32.6H67.2V127H0v-23L69,2.3h30.6v99h19V127z M67.2,101.2V74.5c0-4.4,0.2-10.9,0.5-19.4
		c0.3-8.4,0.6-13.4,0.8-14.7h-0.8c-2.6,5.8-5.8,11.7-9.6,17.2l-28.8,43.7h37.9V101.2z"/>
	<path d="M390.3,127h-19v32.6h-32.6V127h-67.2v-23l69-101.6h30.6v99h19V127H390.3z M338.8,101.2V74.5c0-4.4,0.2-10.9,0.5-19.4
		c0.3-8.6,0.6-13.4,0.8-14.7h-0.8c-2.6,5.8-5.8,11.7-9.6,17.2l-28.8,43.6H338.8L338.8,101.2z"/>
</g>
</svg>
